Iniciando procesamiento de archivos
ffmpeg -y -i "/mnt/R1/HDD500GB/A/Los 80 Argentina/Barbazul Versus el Amor Letal - Patricio Rey y sus Redonditos de Ricota.ogg" -i "/mnt/R1/HDD500GB/A/Los 80 Argentina/Barbazul Versus el Amor Letal - Patricio Rey y sus Redonditos de Ricota.jpg" -c:a copy -id3v2_version 3 -metadata:s:v title="Portada" -metadata:s:v comment="Imagen de portada" "/mnt/R1/HDD500GB/A/Los 80 Argentina/Barbazul Versus el Amor Letal - Patricio Rey y sus Redonditos de Ricota_temp.ogg"
ffmpeg version 6.1.1-3ubuntu5 Copyright (c) 2000-2023 the FFmpeg developers
  built with gcc 13 (Ubuntu 13.2.0-23ubuntu3)
  configuration: --prefix=/usr --extra-version=3ubuntu5 --toolchain=hardened --libdir=/usr/lib/x86_64-linux-gnu --incdir=/usr/include/x86_64-linux-gnu --arch=amd64 --enable-gpl --disable-stripping --disable-omx --enable-gnutls --enable-libaom --enable-libass --enable-libbs2b --enable-libcaca --enable-libcdio --enable-libcodec2 --enable-libdav1d --enable-libflite --enable-libfontconfig --enable-libfreetype --enable-libfribidi --enable-libglslang --enable-libgme --enable-libgsm --enable-libharfbuzz --enable-libmp3lame --enable-libmysofa --enable-libopenjpeg --enable-libopenmpt --enable-libopus --enable-librubberband --enable-libshine --enable-libsnappy --enable-libsoxr --enable-libspeex --enable-libtheora --enable-libtwolame --enable-libvidstab --enable-libvorbis --enable-libvpx --enable-libwebp --enable-libx265 --enable-libxml2 --enable-libxvid --enable-libzimg --enable-openal --enable-opencl --enable-opengl --disable-sndio --enable-libvpl --disable-libmfx --enable-libdc1394 --enable-libdrm --enable-libiec61883 --enable-chromaprint --enable-frei0r --enable-ladspa --enable-libbluray --enable-libjack --enable-libpulse --enable-librabbitmq --enable-librist --enable-libsrt --enable-libssh --enable-libsvtav1 --enable-libx264 --enable-libzmq --enable-libzvbi --enable-lv2 --enable-sdl2 --enable-libplacebo --enable-librav1e --enable-pocketsphinx --enable-librsvg --enable-libjxl --enable-shared
  libavutil      58. 29.100 / 58. 29.100
  libavcodec     60. 31.102 / 60. 31.102
  libavformat    60. 16.100 / 60. 16.100
  libavdevice    60.  3.100 / 60.  3.100
  libavfilter     9. 12.100 /  9. 12.100
  libswscale      7.  5.100 /  7.  5.100
  libswresample   4. 12.100 /  4. 12.100
  libpostproc    57.  3.100 / 57.  3.100
[ogg @ 0x62f4bae58540] 6433 bytes of comment header remain
Input #0, ogg, from '/mnt/R1/HDD500GB/A/Los 80 Argentina/Barbazul Versus el Amor Letal - Patricio Rey y sus Redonditos de Ricota.ogg':
  Duration: 00:04:19.03, start: 0.000000, bitrate: 167 kb/s
  Stream #0:0: Audio: vorbis, 44100 Hz, stereo, fltp, 144 kb/s
    Metadata:
      title           : Barbazul Versus el Amor Letal
      artist          : Patricio Rey y sus Redonditos de Ricota
      track           : 1/11
      album           : Gulp!
      date            : 1985
      genre           : argentine rock; post-punk argentina
      bpm             : 118.569
      isrc            : AR5CC8500001
      label           : Patricio Rey Discos
      album_artist    : Patricio Rey y sus Redonditos de Ricota
      lyricist        : Carlos Alberto Solari; Eduardo Federico Beilinson
      copyright       : 1985 Patricio Rey Discos; 1985 Patricio Rey Discos
Input #1, png_pipe, from '/mnt/R1/HDD500GB/A/Los 80 Argentina/Barbazul Versus el Amor Letal - Patricio Rey y sus Redonditos de Ricota.jpg':
  Duration: N/A, bitrate: N/A
  Stream #1:0: Video: png, rgb24(pc, gbr/unknown/unknown), 640x640, 25 fps, 25 tbr, 25 tbn
Stream mapping:
  Stream #1:0 -> #0:0 (png (native) -> theora (libtheora))
  Stream #0:0 -> #0:1 (copy)
Press [q] to stop, [?] for help
Output #0, ogg, to '/mnt/R1/HDD500GB/A/Los 80 Argentina/Barbazul Versus el Amor Letal - Patricio Rey y sus Redonditos de Ricota_temp.ogg':
  Metadata:
    encoder         : Lavf60.16.100
  Stream #0:0: Video: theora, yuv444p(tv, progressive), 640x640, q=2-31, 200 kb/s, 25 fps, 25 tbn
    Metadata:
      title           : Portada
      DESCRIPTION     : Imagen de portada
      encoder         : Lavc60.31.102 libtheora
  Stream #0:1: Audio: vorbis, 44100 Hz, stereo, fltp, 144 kb/s
    Metadata:
      title           : Barbazul Versus el Amor Letal
      artist          : Patricio Rey y sus Redonditos de Ricota
      TRACKNUMBER     : 1/11
      album           : Gulp!
      date            : 1985
      genre           : argentine rock; post-punk argentina
      bpm             : 118.569
      isrc            : AR5CC8500001
      label           : Patricio Rey Discos
      ALBUMARTIST     : Patricio Rey y sus Redonditos de Ricota
      lyricist        : Carlos Alberto Solari; Eduardo Federico Beilinson
      copyright       : 1985 Patricio Rey Discos; 1985 Patricio Rey Discos
      encoder         : Lavf60.16.100
frame=    0 fps=0.0 q=-0.0 size=       0kB time=00:00:00.00 bitrate=N/A speed=   0x    [out#0/ogg @ 0x62f4baec6fc0] video:24kB audio:5216kB subtitle:0kB other streams:0kB global headers:7kB muxing overhead: 0.846374%
frame=    1 fps=0.0 q=-0.0 Lsize=    5285kB time=00:04:19.01 bitrate= 167.1kbits/s speed=1.28e+03x    
ffmpeg -y -i "/mnt/R1/HDD500GB/A/Los 80 Argentina/Amor Descartable - Virus.ogg" -i "/mnt/R1/HDD500GB/A/Los 80 Argentina/Amor Descartable - Virus.jpg" -c:a copy -id3v2_version 3 -metadata:s:v title="Portada" -metadata:s:v comment="Imagen de portada" "/mnt/R1/HDD500GB/A/Los 80 Argentina/Amor Descartable - Virus_temp.ogg"
ffmpeg version 6.1.1-3ubuntu5 Copyright (c) 2000-2023 the FFmpeg developers
  built with gcc 13 (Ubuntu 13.2.0-23ubuntu3)
  configuration: --prefix=/usr --extra-version=3ubuntu5 --toolchain=hardened --libdir=/usr/lib/x86_64-linux-gnu --incdir=/usr/include/x86_64-linux-gnu --arch=amd64 --enable-gpl --disable-stripping --disable-omx --enable-gnutls --enable-libaom --enable-libass --enable-libbs2b --enable-libcaca --enable-libcdio --enable-libcodec2 --enable-libdav1d --enable-libflite --enable-libfontconfig --enable-libfreetype --enable-libfribidi --enable-libglslang --enable-libgme --enable-libgsm --enable-libharfbuzz --enable-libmp3lame --enable-libmysofa --enable-libopenjpeg --enable-libopenmpt --enable-libopus --enable-librubberband --enable-libshine --enable-libsnappy --enable-libsoxr --enable-libspeex --enable-libtheora --enable-libtwolame --enable-libvidstab --enable-libvorbis --enable-libvpx --enable-libwebp --enable-libx265 --enable-libxml2 --enable-libxvid --enable-libzimg --enable-openal --enable-opencl --enable-opengl --disable-sndio --enable-libvpl --disable-libmfx --enable-libdc1394 --enable-libdrm --enable-libiec61883 --enable-chromaprint --enable-frei0r --enable-ladspa --enable-libbluray --enable-libjack --enable-libpulse --enable-librabbitmq --enable-librist --enable-libsrt --enable-libssh --enable-libsvtav1 --enable-libx264 --enable-libzmq --enable-libzvbi --enable-lv2 --enable-sdl2 --enable-libplacebo --enable-librav1e --enable-pocketsphinx --enable-librsvg --enable-libjxl --enable-shared
  libavutil      58. 29.100 / 58. 29.100
  libavcodec     60. 31.102 / 60. 31.102
  libavformat    60. 16.100 / 60. 16.100
  libavdevice    60.  3.100 / 60.  3.100
  libavfilter     9. 12.100 /  9. 12.100
  libswscale      7.  5.100 /  7.  5.100
  libswresample   4. 12.100 /  4. 12.100
  libpostproc    57.  3.100 / 57.  3.100
[ogg @ 0x5fa1f43ad540] 5327 bytes of comment header remain
Input #0, ogg, from '/mnt/R1/HDD500GB/A/Los 80 Argentina/Amor Descartable - Virus.ogg':
  Duration: 00:03:30.43, start: 0.000000, bitrate: 163 kb/s
  Stream #0:0: Audio: vorbis, 44100 Hz, stereo, fltp, 144 kb/s
    Metadata:
      title           : Amor Descartable
      artist          : Virus
      track           : 5/9
      album           : Relax
      date            : 1984
      genre           : argentine rock; post-punk argentina; rock nacional
      album_artist    : Virus
      bpm             : 125.225
      label           : Columbia
      isrc            : ARF109500358
      lyricist        : Federico Moura; Julio Moura
      copyright       : (P) 1984 Sony Music Entertainment (Argentina) S.A.
Input #1, png_pipe, from '/mnt/R1/HDD500GB/A/Los 80 Argentina/Amor Descartable - Virus.jpg':
  Duration: N/A, bitrate: N/A
  Stream #1:0: Video: png, rgb24(pc, gbr/unknown/unknown), 640x640, 25 fps, 25 tbr, 25 tbn
Stream mapping:
  Stream #1:0 -> #0:0 (png (native) -> theora (libtheora))
  Stream #0:0 -> #0:1 (copy)
Press [q] to stop, [?] for help
Output #0, ogg, to '/mnt/R1/HDD500GB/A/Los 80 Argentina/Amor Descartable - Virus_temp.ogg':
  Metadata:
    encoder         : Lavf60.16.100
  Stream #0:0: Video: theora, yuv444p(tv, progressive), 640x640, q=2-31, 200 kb/s, 25 fps, 25 tbn
    Metadata:
      title           : Portada
      DESCRIPTION     : Imagen de portada
      encoder         : Lavc60.31.102 libtheora
  Stream #0:1: Audio: vorbis, 44100 Hz, stereo, fltp, 144 kb/s
    Metadata:
      title           : Amor Descartable
      artist          : Virus
      TRACKNUMBER     : 5/9
      album           : Relax
      date            : 1984
      genre           : argentine rock; post-punk argentina; rock nacional
      ALBUMARTIST     : Virus
      bpm             : 125.225
      label           : Columbia
      isrc            : ARF109500358
      lyricist        : Federico Moura; Julio Moura
      copyright       : (P) 1984 Sony Music Entertainment (Argentina) S.A.
      encoder         : Lavf60.16.100
frame=    0 fps=0.0 q=-0.0 size=       0kB time=00:00:00.00 bitrate=N/A speed=   0x    [out#0/ogg @ 0x5fa1f441be80] video:8kB audio:4148kB subtitle:0kB other streams:0kB global headers:7kB muxing overhead: 0.906132%
frame=    1 fps=0.0 q=-0.0 Lsize=    4194kB time=00:03:30.41 bitrate= 163.3kbits/s speed=1.18e+03x    
ffmpeg -y -i "/mnt/R1/HDD500GB/A/Los 80 Argentina/Bailando en las Veredas - Raul Porchetto.ogg" -i "/mnt/R1/HDD500GB/A/Los 80 Argentina/Bailando en las Veredas - Raul Porchetto.jpg" -c:a copy -id3v2_version 3 -metadata:s:v title="Portada" -metadata:s:v comment="Imagen de portada" "/mnt/R1/HDD500GB/A/Los 80 Argentina/Bailando en las Veredas - Raul Porchetto_temp.ogg"
ffmpeg version 6.1.1-3ubuntu5 Copyright (c) 2000-2023 the FFmpeg developers
  built with gcc 13 (Ubuntu 13.2.0-23ubuntu3)
  configuration: --prefix=/usr --extra-version=3ubuntu5 --toolchain=hardened --libdir=/usr/lib/x86_64-linux-gnu --incdir=/usr/include/x86_64-linux-gnu --arch=amd64 --enable-gpl --disable-stripping --disable-omx --enable-gnutls --enable-libaom --enable-libass --enable-libbs2b --enable-libcaca --enable-libcdio --enable-libcodec2 --enable-libdav1d --enable-libflite --enable-libfontconfig --enable-libfreetype --enable-libfribidi --enable-libglslang --enable-libgme --enable-libgsm --enable-libharfbuzz --enable-libmp3lame --enable-libmysofa --enable-libopenjpeg --enable-libopenmpt --enable-libopus --enable-librubberband --enable-libshine --enable-libsnappy --enable-libsoxr --enable-libspeex --enable-libtheora --enable-libtwolame --enable-libvidstab --enable-libvorbis --enable-libvpx --enable-libwebp --enable-libx265 --enable-libxml2 --enable-libxvid --enable-libzimg --enable-openal --enable-opencl --enable-opengl --disable-sndio --enable-libvpl --disable-libmfx --enable-libdc1394 --enable-libdrm --enable-libiec61883 --enable-chromaprint --enable-frei0r --enable-ladspa --enable-libbluray --enable-libjack --enable-libpulse --enable-librabbitmq --enable-librist --enable-libsrt --enable-libssh --enable-libsvtav1 --enable-libx264 --enable-libzmq --enable-libzvbi --enable-lv2 --enable-sdl2 --enable-libplacebo --enable-librav1e --enable-pocketsphinx --enable-librsvg --enable-libjxl --enable-shared
  libavutil      58. 29.100 / 58. 29.100
  libavcodec     60. 31.102 / 60. 31.102
  libavformat    60. 16.100 / 60. 16.100
  libavdevice    60.  3.100 / 60.  3.100
  libavfilter     9. 12.100 /  9. 12.100
  libswscale      7.  5.100 /  7.  5.100
  libswresample   4. 12.100 /  4. 12.100
  libpostproc    57.  3.100 / 57.  3.100
[ogg @ 0x57f415386540] 6201 bytes of comment header remain
Input #0, ogg, from '/mnt/R1/HDD500GB/A/Los 80 Argentina/Bailando en las Veredas - Raul Porchetto.ogg':
  Duration: 00:04:16.49, start: 0.000000, bitrate: 161 kb/s
  Stream #0:0: Audio: vorbis, 44100 Hz, stereo, fltp, 144 kb/s
    Metadata:
      title           : Bailando en las Veredas
      artist          : Raul Porchetto
      track           : 3/10
      album           : Noche y Día
      date            : 1986
      genre           : argentine rock; rock nacional
      bpm             : 149.959
      label           : RCA Victor
      isrc            : ARF038600114
      lyricist        : Raul Porchetto
      album_artist    : Raul Porchetto
      copyright       : (P) 1986 Sony Music Entertainment Argentina S.A.
Input #1, png_pipe, from '/mnt/R1/HDD500GB/A/Los 80 Argentina/Bailando en las Veredas - Raul Porchetto.jpg':
  Duration: N/A, bitrate: N/A
  Stream #1:0: Video: png, rgb24(pc, gbr/unknown/unknown), 640x629, 25 fps, 25 tbr, 25 tbn
Stream mapping:
  Stream #1:0 -> #0:0 (png (native) -> theora (libtheora))
  Stream #0:0 -> #0:1 (copy)
Press [q] to stop, [?] for help
Output #0, ogg, to '/mnt/R1/HDD500GB/A/Los 80 Argentina/Bailando en las Veredas - Raul Porchetto_temp.ogg':
  Metadata:
    encoder         : Lavf60.16.100
  Stream #0:0: Video: theora, yuv444p(tv, progressive), 640x629, q=2-31, 200 kb/s, 25 fps, 25 tbn
    Metadata:
      title           : Portada
      DESCRIPTION     : Imagen de portada
      encoder         : Lavc60.31.102 libtheora
  Stream #0:1: Audio: vorbis, 44100 Hz, stereo, fltp, 144 kb/s
    Metadata:
      title           : Bailando en las Veredas
      artist          : Raul Porchetto
      TRACKNUMBER     : 3/10
      album           : Noche y Día
      date            : 1986
      genre           : argentine rock; rock nacional
      bpm             : 149.959
      label           : RCA Victor
      isrc            : ARF038600114
      lyricist        : Raul Porchetto
      ALBUMARTIST     : Raul Porchetto
      copyright       : (P) 1986 Sony Music Entertainment Argentina S.A.
      encoder         : Lavf60.16.100
frame=    0 fps=0.0 q=-0.0 size=       0kB time=00:00:00.00 bitrate=N/A speed=   0x    [out#0/ogg @ 0x57f4153f4c00] video:18kB audio:4992kB subtitle:0kB other streams:0kB global headers:7kB muxing overhead: 0.873327%
frame=    1 fps=0.0 q=-0.0 Lsize=    5054kB time=00:04:16.48 bitrate= 161.4kbits/s speed=1.25e+03x    
ffmpeg -y -i "/mnt/R1/HDD500GB/A/Los 80 Argentina/A Cada Hombre, A Cada Mujer - Serú Girán.ogg" -i "/mnt/R1/HDD500GB/A/Los 80 Argentina/A Cada Hombre, A Cada Mujer - Serú Girán.jpg" -c:a copy -id3v2_version 3 -metadata:s:v title="Portada" -metadata:s:v comment="Imagen de portada" "/mnt/R1/HDD500GB/A/Los 80 Argentina/A Cada Hombre, A Cada Mujer - Serú Girán_temp.ogg"
ffmpeg version 6.1.1-3ubuntu5 Copyright (c) 2000-2023 the FFmpeg developers
  built with gcc 13 (Ubuntu 13.2.0-23ubuntu3)
  configuration: --prefix=/usr --extra-version=3ubuntu5 --toolchain=hardened --libdir=/usr/lib/x86_64-linux-gnu --incdir=/usr/include/x86_64-linux-gnu --arch=amd64 --enable-gpl --disable-stripping --disable-omx --enable-gnutls --enable-libaom --enable-libass --enable-libbs2b --enable-libcaca --enable-libcdio --enable-libcodec2 --enable-libdav1d --enable-libflite --enable-libfontconfig --enable-libfreetype --enable-libfribidi --enable-libglslang --enable-libgme --enable-libgsm --enable-libharfbuzz --enable-libmp3lame --enable-libmysofa --enable-libopenjpeg --enable-libopenmpt --enable-libopus --enable-librubberband --enable-libshine --enable-libsnappy --enable-libsoxr --enable-libspeex --enable-libtheora --enable-libtwolame --enable-libvidstab --enable-libvorbis --enable-libvpx --enable-libwebp --enable-libx265 --enable-libxml2 --enable-libxvid --enable-libzimg --enable-openal --enable-opencl --enable-opengl --disable-sndio --enable-libvpl --disable-libmfx --enable-libdc1394 --enable-libdrm --enable-libiec61883 --enable-chromaprint --enable-frei0r --enable-ladspa --enable-libbluray --enable-libjack --enable-libpulse --enable-librabbitmq --enable-librist --enable-libsrt --enable-libssh --enable-libsvtav1 --enable-libx264 --enable-libzmq --enable-libzvbi --enable-lv2 --enable-sdl2 --enable-libplacebo --enable-librav1e --enable-pocketsphinx --enable-librsvg --enable-libjxl --enable-shared
  libavutil      58. 29.100 / 58. 29.100
  libavcodec     60. 31.102 / 60. 31.102
  libavformat    60. 16.100 / 60. 16.100
  libavdevice    60.  3.100 / 60.  3.100
  libavfilter     9. 12.100 /  9. 12.100
  libswscale      7.  5.100 /  7.  5.100
  libswresample   4. 12.100 /  4. 12.100
  libpostproc    57.  3.100 / 57.  3.100
[ogg @ 0x637c22b09540] 5614 bytes of comment header remain
Input #0, ogg, from '/mnt/R1/HDD500GB/A/Los 80 Argentina/A Cada Hombre, A Cada Mujer - Serú Girán.ogg':
  Duration: 00:03:53.31, start: 0.000000, bitrate: 157 kb/s
  Stream #0:0: Audio: vorbis, 44100 Hz, stereo, fltp, 144 kb/s
    Metadata:
      title           : A Cada Hombre, A Cada Mujer
      artist          : Serú Girán
      track           : 5/11
      album           : Seru Giran 92
      date            : 1992
      genre           : argentine rock; rock en espanol; rock nacional
      lyricist        : Aznar
      bpm             : 116.591
      label           : Columbia
      album_artist    : Serú Girán
      isrc            : ARF109902746
      copyright       : (P) 1992 Sony Music Entertainment (Argentina) S.A.
Input #1, png_pipe, from '/mnt/R1/HDD500GB/A/Los 80 Argentina/A Cada Hombre, A Cada Mujer - Serú Girán.jpg':
  Duration: N/A, bitrate: N/A
  Stream #1:0: Video: png, rgb24(pc, gbr/unknown/unknown), 640x640, 25 fps, 25 tbr, 25 tbn
Stream mapping:
  Stream #1:0 -> #0:0 (png (native) -> theora (libtheora))
  Stream #0:0 -> #0:1 (copy)
Press [q] to stop, [?] for help
Output #0, ogg, to '/mnt/R1/HDD500GB/A/Los 80 Argentina/A Cada Hombre, A Cada Mujer - Serú Girán_temp.ogg':
  Metadata:
    encoder         : Lavf60.16.100
  Stream #0:0: Video: theora, yuv444p(tv, progressive), 640x640, q=2-31, 200 kb/s, 25 fps, 25 tbn
    Metadata:
      title           : Portada
      DESCRIPTION     : Imagen de portada
      encoder         : Lavc60.31.102 libtheora
  Stream #0:1: Audio: vorbis, 44100 Hz, stereo, fltp, 144 kb/s
    Metadata:
      title           : A Cada Hombre, A Cada Mujer
      artist          : Serú Girán
      TRACKNUMBER     : 5/11
      album           : Seru Giran 92
      date            : 1992
      genre           : argentine rock; rock en espanol; rock nacional
      lyricist        : Aznar
      bpm             : 116.591
      label           : Columbia
      ALBUMARTIST     : Serú Girán
      isrc            : ARF109902746
      copyright       : (P) 1992 Sony Music Entertainment (Argentina) S.A.
      encoder         : Lavf60.16.100
frame=    0 fps=0.0 q=-0.0 size=       0kB time=00:00:00.00 bitrate=N/A speed=   0x    [out#0/ogg @ 0x637c22b77d80] video:16kB audio:4426kB subtitle:0kB other streams:0kB global headers:7kB muxing overhead: 0.878550%
frame=    1 fps=0.0 q=-0.0 Lsize=    4481kB time=00:03:53.30 bitrate= 157.3kbits/s speed=1.2e+03x    
